<svg xmlns="http://www.w3.org/2000/svg" width="20" height="20"><path stroke="none" d="M1.732 9.996q0 1.134.299 2.184t.835 1.974a8.25 8.25 0 0 0 2.958 2.976q.919.54 1.974.84 1.055.297 2.189.298 1.134 0 2.184-.299 1.05-.3 1.965-.84a8.5 8.5 0 0 0 1.675-1.296 8.2 8.2 0 0 0 1.301-1.68q.54-.922.844-1.973.303-1.05.303-2.184T17.96 7.81t-.84-1.97a8.2 8.2 0 0 0-1.296-1.67 8.4 8.4 0 0 0-1.679-1.292 8.5 8.5 0 0 0-1.974-.84q-1.05-.298-2.184-.298t-2.19.299q-1.053.298-1.973.835a8.2 8.2 0 0 0-2.958 2.962 8.6 8.6 0 0 0-.835 1.974q-.3 1.05-.3 2.185m2.77.035v-.035l4.025-4.211h2.92L8.377 8.923h6.673v2.18H8.378l3.068 3.139H8.527zM0 9.987q0-1.363.36-2.629T1.38 4.98a10.24 10.24 0 0 1 3.6-3.6Q6.093.72 7.363.36A9.6 9.6 0 0 1 9.996 0a9.6 9.6 0 0 1 2.633.36q1.269.36 2.382 1.011 1.112.651 2.03 1.565.92.915 1.579 2.027.66 1.111 1.02 2.382.36 1.27.36 2.642 0 1.362-.36 2.633t-1.02 2.382-1.578 2.031a10.138 10.138 0 0 1-4.413 2.602A9.5 9.5 0 0 1 9.996 20a9.6 9.6 0 0 1-2.633-.36 10.028 10.028 0 0 1-4.409-2.589A10.4 10.4 0 0 1 1.38 15.02a10 10 0 0 1-1.02-2.387A9.7 9.7 0 0 1 0 9.987" style="font-size:11.38508987px;font-style:normal;font-variant:normal;font-weight:400;font-stretch:normal;text-align:start;line-height:125%;letter-spacing:0;word-spacing:0;writing-mode:lr-tb;text-anchor:start;fill:#1a1a1a;fill-opacity:1;stroke:none;font-family:Segoe UI Symbol;-inkscape-font-specification:Segoe UI Symbol"/></svg>